<svg width="1280" height="315" viewBox="0 0 1280 315" fill="none" xmlns="http://www.w3.org/2000/svg">
<g clip-path="url(#clip0)">
<path fill-rule="evenodd" clip-rule="evenodd" d="M0 82.4484L53.3704 65.5077C106.741 48.5668 213.482
 15.4554 320.222 4.67495C426.963 -6.87561 533.704 4.67495 640.445 20.8456C747.186 37.7864 853.926 60.1174
  960.667 65.5077C1067.41 70.8978 1174.15 60.1174 1227.52 54.7272L1280.89 48.5668V315H1227.52C1174.15 315
   1067.41 315 960.667 315C853.926 315 747.186 315 640.445 315C533.704 315 426.963 315 320.222 315C213.482
    315 106.741 315 53.3704 315H0V82.4484Z" fill="#063F87"/>
</g>
<defs>
<clipPath id="clip0">
<rect width="1280" height="315" fill="white"/>
</clipPath>
</defs>
</svg>
